<svg width="64" height="87" viewBox="0 0 64 87" fill="none" xmlns="http://www.w3.org/2000/svg">
<path d="M11.804 77.402L7.31201 27H56.688L52.19 77.394L31.97 83L11.804 77.402Z" fill="#1572B6"/>
<path d="M32 78.716L48.34 74.186L52.184 31.122H32V78.716Z" fill="#33A9DC"/>
<path d="M32 49.382H40.18L40.744 43.052H32V36.87H47.5L47.352 38.528L45.834 55.564H32V49.382Z" fill="white"/>
<path d="M32.038 65.436L32.01 65.444L25.126 63.584L24.686 58.654H18.48L19.346 68.36L32.008 71.876L32.038 71.868V65.436Z" fill="#EBEBEB"/>
<path d="M39.654 55.302L38.91 63.58L32.016 65.44V71.872L44.688 68.36L44.782 67.316L45.856 55.302H39.654Z" fill="white"/>
<path d="M32.022 36.87V43.052H17.09L16.966 41.662L16.684 38.528L16.536 36.87H32.022ZM32 49.382V55.564H25.202L25.078 54.174L24.798 51.04L24.65 49.382H32Z" fill="#EBEBEB"/>
<path d="M28.0417 23.75V20.5833H30.4167V21.375H33.5833V19.7917H28.0417V14.25H35.9583V17.4167H33.5833V16.625H30.4167V18.2083H35.9583V23.75H28.0417ZM38.3333 23.75H46.25V18.2083H40.7083V16.625H43.875V17.4167H46.25V14.25H38.3333V19.7917H43.875V21.375H40.7083V20.5833H38.3333V23.75ZM25.6667 17.4167V14.25H17.75V23.75H25.6667V20.5833H23.2917V21.375H20.125V16.625H23.2917V17.4167H25.6667Z" fill="black"/>
</svg>
