<svg width="48" height="68" viewBox="0 0 48 68" fill="none" xmlns="http://www.w3.org/2000/svg">
<path d="M47.9166 13.3299L43.5589 62.3728L23.9707 67.8282L4.43662 62.3803L0.0834351 13.3299H47.9166Z" fill="#E44D26"/>
<path d="M24 63.6582L39.8282 59.2499L43.5519 17.3404H24V63.6582Z" fill="#F16529"/>
<path d="M15.5287 29.3722H24V23.3564H8.98444L9.12769 24.9703L10.5996 41.5484H24V35.5325H16.0761L15.5287 29.3722ZM16.8784 44.5564H10.8671L11.706 54.0022L23.9724 57.4229L24 57.4154V51.1563L23.9737 51.1633L17.3047 49.3543L16.8784 44.5564Z" fill="#EBEBEB"/>
<path d="M4.53375 0H7.57688V3.02044H10.3607V0H13.404V9.14666H10.3609V6.08383H7.57706V9.14666H4.53394V0H4.53375ZM17.4056 3.03325H14.727V0H23.1296V3.03325H20.4493V9.14666H17.4062V3.03325H17.406H17.4056ZM24.4631 0H27.6362L29.5881 3.21389L31.5381 0H34.7124V9.14666H31.6817V4.61307L29.5881 7.86521H29.5356L27.4406 4.61307V9.14666H24.4631V0ZM36.2269 0H39.2709V6.12339H43.5504V9.14666H36.2267V0H36.2269Z" fill="black"/>
<path d="M23.9794 41.5484H31.3532L30.6579 49.3505L23.9792 51.1614V57.4201L36.2554 54.0022L36.3454 52.9858L37.7528 37.148L37.8988 35.5325H23.9794V41.5484ZM23.9794 29.3575V29.3722H38.4437L38.5637 28.0201L38.8367 24.9703L38.9797 23.3564H23.9794V29.3577V29.3575Z" fill="white"/>
</svg>
