<svg width="84" height="51" viewBox="0 0 84 51" fill="none" xmlns="http://www.w3.org/2000/svg">
<path d="M41.5259 50.8529C41.2415 50.8529 40.9761 50.7778 40.7295 50.6464L38.2077 49.1635C37.8284 48.9569 38.018 48.8819 38.1319 48.8444C38.6438 48.6754 38.7386 48.6378 39.2695 48.3376C39.3264 48.2999 39.4024 48.3188 39.4592 48.3563L41.3933 49.5014C41.4691 49.5389 41.5639 49.5389 41.6207 49.5014L49.1864 45.1651C49.2622 45.1275 49.3003 45.0523 49.3003 44.9586V36.3049C49.3003 36.2108 49.2622 36.1359 49.1864 36.0983L41.6207 31.7808C41.5449 31.7431 41.4501 31.7431 41.3933 31.7808L33.8275 36.0983C33.7517 36.1358 33.7137 36.2297 33.7137 36.3047V44.9585C33.7137 45.0337 33.7517 45.1274 33.8275 45.1651L35.8944 46.3476C37.0131 46.9107 37.7147 46.2538 37.7147 45.5968V37.0556C37.7147 36.943 37.8095 36.8303 37.9422 36.8303H38.9092C39.0231 36.8303 39.1368 36.9242 39.1368 37.0556V45.5968C39.1368 47.0797 38.3214 47.9433 36.8993 47.9433C36.4632 47.9433 36.122 47.9433 35.1548 47.4739L33.1639 46.3476C32.6709 46.0662 32.3676 45.5404 32.3676 44.9773V36.3235C32.3676 35.7604 32.6709 35.2347 33.1639 34.9532L40.7295 30.6169C41.2036 30.3541 41.8484 30.3541 42.3224 30.6169L49.888 34.9532C50.381 35.2347 50.6845 35.7604 50.6845 36.3235V44.9773C50.6845 45.5404 50.381 46.0662 49.888 46.3476L42.3224 50.6839C42.0758 50.7967 41.7915 50.8529 41.526 50.8529H41.5259ZM43.8582 44.9023C40.54 44.9023 39.8573 43.4005 39.8573 42.1241C39.8573 42.0113 39.9522 41.8988 40.0849 41.8988H41.0709C41.1846 41.8988 41.2794 41.9738 41.2794 42.0865C41.4312 43.0814 41.8673 43.5694 43.8772 43.5694C45.4699 43.5694 46.1527 43.2128 46.1527 42.368C46.1527 41.8799 45.9629 41.5234 43.479 41.2793C41.4122 41.0727 40.1228 40.6223 40.1228 38.9892C40.1228 37.4686 41.4123 36.5675 43.5738 36.5675C46.0008 36.5675 47.1955 37.3936 47.3473 39.1955C47.3473 39.252 47.3283 39.3082 47.2904 39.3645C47.2523 39.4021 47.1955 39.4396 47.1386 39.4396H46.1526C46.0578 39.4396 45.9629 39.3645 45.9441 39.2707C45.7165 38.2383 45.1287 37.9003 43.5738 37.9003C41.8294 37.9003 41.6207 38.5011 41.6207 38.9515C41.6207 39.4959 41.8673 39.6648 44.2184 39.9652C46.5508 40.2656 47.6506 40.6974 47.6506 42.3117C47.6316 43.9636 46.2664 44.9023 43.8582 44.9023Z" fill="#539E43"/>
<path d="M18.0515 17.0074C18.0515 16.6695 17.8618 16.3502 17.5585 16.1813L9.51875 11.601C9.38586 11.5258 9.23426 11.4883 9.08267 11.4695H9.00671C8.85511 11.4695 8.70336 11.5258 8.57063 11.601L0.530911 16.1813C0.227395 16.3502 0.0379028 16.6694 0.0379028 17.0074L0.0569341 29.3216C0.0569341 29.4905 0.151762 29.6594 0.303356 29.7346C0.455114 29.8285 0.644606 29.8285 0.777497 29.7346L5.55582 27.0315C5.85917 26.8625 6.04882 26.5434 6.04882 26.2056V20.4426C6.04882 20.1047 6.23832 19.7856 6.54183 19.6166L8.57063 18.4527C8.72239 18.3589 8.89301 18.3212 9.06364 18.3212C9.23426 18.3212 9.40489 18.3589 9.53778 18.4527L11.5666 19.6166C11.8701 19.7856 12.0596 20.1046 12.0596 20.4426V26.2056C12.0596 26.5434 12.2492 26.8625 12.5526 27.0315L17.3309 29.7346C17.4047 29.7806 17.4902 29.8051 17.5774 29.8051C17.6646 29.8051 17.7501 29.7806 17.8239 29.7346C17.9757 29.6594 18.0705 29.4905 18.0705 29.3216L18.0515 17.0074ZM56.6953 0.0563623C56.5437 -0.0188383 56.354 -0.0188383 56.2211 0.0563623C56.0695 0.150241 55.9747 0.300318 55.9747 0.469235V12.6711C55.9747 12.7836 55.9179 12.8962 55.8041 12.9714C55.6904 13.0276 55.5765 13.0276 55.4628 12.9714L53.4529 11.8263C53.3055 11.7433 53.1389 11.6996 52.9693 11.6996C52.7997 11.6996 52.6331 11.7433 52.4857 11.8263L44.446 16.4254C44.1427 16.5943 43.953 16.9135 43.953 17.2513V26.4307C43.953 26.7685 44.1427 27.0878 44.446 27.2567L52.4857 31.8558C52.6331 31.9389 52.7997 31.9826 52.9693 31.9826C53.1389 31.9826 53.3055 31.9389 53.4529 31.8558L61.4926 27.2567C61.796 27.0878 61.9856 26.7687 61.9856 26.4307V3.54791C61.9856 3.19124 61.796 2.87224 61.4926 2.70317L56.6954 0.0563623H56.6953ZM55.9558 23.4085C55.9558 23.5024 55.9179 23.5774 55.842 23.615L53.0926 25.1917C53.0542 25.2103 53.012 25.2199 52.9693 25.2199C52.9266 25.2199 52.8844 25.2103 52.846 25.1917L50.0967 23.615C50.0207 23.5774 49.9828 23.4836 49.9828 23.4085V20.2548C49.9828 20.1609 50.0207 20.0859 50.0967 20.0484L52.846 18.4714C52.8844 18.4529 52.9266 18.4432 52.9693 18.4432C53.012 18.4432 53.0542 18.4529 53.0926 18.4714L55.842 20.0484C55.9179 20.0857 55.9558 20.1798 55.9558 20.2548V23.4085ZM83.4501 20.1798C83.7536 20.0108 83.9242 19.6917 83.9242 19.3537V17.1199C83.9242 16.7821 83.7346 16.4629 83.4501 16.294L75.4673 11.7138C75.3199 11.6307 75.1533 11.587 74.9837 11.587C74.8141 11.587 74.6475 11.6307 74.5001 11.7138L66.4604 16.3127C66.1569 16.4816 65.9674 16.8008 65.9674 17.1386V26.3181C65.9674 26.6559 66.1571 26.9751 66.4604 27.144L74.4432 31.6492C74.7467 31.8182 75.107 31.8182 75.3915 31.6492L80.2266 28.9839C80.3783 28.9087 80.4732 28.7398 80.4732 28.5709C80.4732 28.402 80.3783 28.2331 80.2266 28.1579L72.149 23.5588C71.9972 23.4649 71.9024 23.3148 71.9024 23.1459V20.2738C71.9024 20.1049 71.9972 19.936 72.149 19.8608L74.6708 18.4341C74.7446 18.3881 74.83 18.3637 74.9173 18.3637C75.0045 18.3637 75.0899 18.3881 75.1638 18.4341L77.6857 19.8608C77.8375 19.9546 77.9322 20.1047 77.9322 20.2738V22.5264C77.9322 22.6953 78.027 22.8642 78.1787 22.9393C78.2526 22.9853 78.338 23.0097 78.4252 23.0097C78.5125 23.0097 78.5979 22.9853 78.6718 22.9393L83.4501 20.1798Z" fill="#333333"/>
<path d="M74.8604 19.7479C74.8886 19.7295 74.9215 19.7197 74.9552 19.7197C74.989 19.7197 75.0219 19.7295 75.0501 19.7479L76.586 20.6302C76.6428 20.6678 76.6807 20.724 76.6807 20.7991V22.5638C76.6807 22.6388 76.643 22.6952 76.586 22.7327L75.0501 23.615C75.0219 23.6333 74.989 23.6431 74.9552 23.6431C74.9215 23.6431 74.8886 23.6333 74.8604 23.615L73.3246 22.7327C73.2677 22.6952 73.2298 22.6388 73.2298 22.5638V20.7992C73.2298 20.724 73.2675 20.6677 73.3246 20.6303L74.8604 19.7479Z" fill="#539E43"/>
<path d="M39.4971 16.3127L31.4764 11.7513C31.3976 11.7119 31.3149 11.6804 31.2298 11.6574L22.2419 26.9002C22.3164 26.9902 22.4063 27.0665 22.5076 27.1255L30.5282 31.6871C30.7558 31.8185 31.0213 31.856 31.2677 31.7808L39.7057 16.5006C39.6488 16.4256 39.5728 16.3691 39.4971 16.3129V16.3127Z" fill="url(#paint0_linear_20_82)"/>
<path fill-rule="evenodd" clip-rule="evenodd" d="M30.2628 10.0805L30.1491 10.1368H30.3007L30.2628 10.0805Z" fill="url(#paint1_linear_20_82)"/>
<path fill-rule="evenodd" clip-rule="evenodd" d="M39.5161 27.1065C39.7436 26.9751 39.9143 26.7498 39.9902 26.5059L31.1917 11.6386C30.9642 11.601 30.7176 11.6197 30.5092 11.7511L22.5453 16.294L31.1348 31.7995C31.2597 31.7792 31.381 31.7413 31.4951 31.6869L39.5159 27.1067L39.5161 27.1065Z" fill="url(#paint2_linear_20_82)"/>
<path fill-rule="evenodd" clip-rule="evenodd" d="M40.2557 26.9564L40.1988 26.8625V26.9939L40.2556 26.9564H40.2557Z" fill="url(#paint3_linear_20_82)"/>
<path fill-rule="evenodd" clip-rule="evenodd" d="M39.5161 27.1065L31.5143 31.6681C31.4013 31.7251 31.2796 31.7631 31.154 31.7806L31.3057 32.0623L40.1797 26.9753V26.8625L39.9522 26.487C39.9143 26.7498 39.7436 26.9751 39.5161 27.1065Z" fill="url(#paint4_linear_20_82)"/>
<path fill-rule="evenodd" clip-rule="evenodd" d="M39.5161 27.1065L31.5143 31.6681C31.4013 31.7251 31.2796 31.7631 31.154 31.7806L31.3057 32.0623L40.1797 26.9753V26.8625L39.9522 26.487C39.9143 26.7498 39.7436 26.9751 39.5161 27.1065Z" fill="url(#paint5_linear_20_82)"/>
<defs>
<linearGradient id="paint0_linear_20_82" x1="29.7998" y1="22.7804" x2="51.6125" y2="10.8097" gradientUnits="userSpaceOnUse">
<stop offset="0.1376" stop-color="#41873F"/>
<stop offset="0.4032" stop-color="#54A044"/>
<stop offset="0.7136" stop-color="#66B848"/>
<stop offset="0.9081" stop-color="#6CC04A"/>
</linearGradient>
<linearGradient id="paint1_linear_20_82" x1="23.4581" y1="10.088" x2="38.2259" y2="10.088" gradientUnits="userSpaceOnUse">
<stop offset="0.09192" stop-color="#6CC04A"/>
<stop offset="0.2864" stop-color="#66B848"/>
<stop offset="0.5968" stop-color="#54A044"/>
<stop offset="0.8624" stop-color="#41873F"/>
</linearGradient>
<linearGradient id="paint2_linear_20_82" x1="21.7796" y1="21.7099" x2="40.2517" y2="21.7099" gradientUnits="userSpaceOnUse">
<stop offset="0.09192" stop-color="#6CC04A"/>
<stop offset="0.2864" stop-color="#66B848"/>
<stop offset="0.5968" stop-color="#54A044"/>
<stop offset="0.8624" stop-color="#41873F"/>
</linearGradient>
<linearGradient id="paint3_linear_20_82" x1="34.6688" y1="26.9101" x2="40.2147" y2="26.9101" gradientUnits="userSpaceOnUse">
<stop offset="0.09192" stop-color="#6CC04A"/>
<stop offset="0.2864" stop-color="#66B848"/>
<stop offset="0.5968" stop-color="#54A044"/>
<stop offset="0.8624" stop-color="#41873F"/>
</linearGradient>
<linearGradient id="paint4_linear_20_82" x1="21.7798" y1="29.29" x2="40.2517" y2="29.29" gradientUnits="userSpaceOnUse">
<stop offset="0.09192" stop-color="#6CC04A"/>
<stop offset="0.2864" stop-color="#66B848"/>
<stop offset="0.5968" stop-color="#54A044"/>
<stop offset="0.8624" stop-color="#41873F"/>
</linearGradient>
<linearGradient id="paint5_linear_20_82" x1="42.9428" y1="14.7194" x2="38.3531" y2="39.0122" gradientUnits="userSpaceOnUse">
<stop stop-color="#41873F"/>
<stop offset="0.3288" stop-color="#418B3D"/>
<stop offset="0.6352" stop-color="#419637"/>
<stop offset="0.9319" stop-color="#3FA92D"/>
<stop offset="1" stop-color="#3FAE2A"/>
</linearGradient>
</defs>
</svg>
