<svg width="60" height="54" viewBox="0 0 60 54" fill="none" xmlns="http://www.w3.org/2000/svg">
<path d="M49.332 17.4848C48.6934 17.2634 48.0495 17.0583 47.4007 16.8697C47.5097 16.4197 47.61 15.9751 47.6991 15.5384C49.1611 8.36658 48.2053 2.58882 44.9407 0.686503C41.8106 -1.13718 36.6916 0.764424 31.5218 5.31108C31.0123 5.75998 30.5141 6.22181 30.0277 6.69613C29.702 6.38072 29.3706 6.07143 29.0337 5.76842C23.6154 0.907003 18.1845 -1.14192 14.9234 0.765845C11.7961 2.59521 10.8701 8.02671 12.1863 14.8236C12.3173 15.4968 12.4651 16.1665 12.6298 16.832C11.861 17.0528 11.1192 17.2877 10.4093 17.5378C4.0568 19.776 0 23.2834 0 26.9215C0 30.679 4.35516 34.4479 10.9716 36.7332C11.508 36.9177 12.0488 37.0886 12.5937 37.2459C12.4167 37.9628 12.2596 38.6845 12.1226 39.4102C10.8677 46.0891 11.8477 51.3923 14.9665 53.21C18.1877 55.0872 23.5943 53.1579 28.8586 48.5075C29.2855 48.1295 29.7029 47.7407 30.1106 47.3416C30.6374 47.8552 31.1782 48.3538 31.7325 48.837C36.832 53.2711 41.8683 55.0617 44.9841 53.2389C48.2023 51.3563 49.2483 45.6593 47.8903 38.7281C47.7833 38.1851 47.6634 37.6448 47.5305 37.1076C47.9102 36.9939 48.2829 36.8769 48.6462 36.7552C55.5246 34.4524 60 30.7292 60 26.9215C60 23.2701 55.8122 19.739 49.332 17.4848ZM47.8402 34.2968C47.512 34.4064 47.1755 34.5123 46.8323 34.6153C46.073 32.186 45.0483 29.603 43.7941 26.9341C44.9909 24.3288 45.9762 21.7787 46.7142 19.3653C47.328 19.5448 47.9236 19.7341 48.4978 19.9337C54.0502 21.8654 57.4369 24.721 57.4369 26.9215C57.4369 29.2653 53.7792 32.308 47.8402 34.2968ZM45.3759 39.2311C45.9764 42.2959 46.062 45.0669 45.6642 47.2333C45.307 49.1799 44.5884 50.4776 43.6997 50.9975C41.809 52.1035 37.7653 50.6659 33.4043 46.8736C32.8888 46.4244 32.3857 45.9607 31.8956 45.4833C33.5864 43.6148 35.276 41.4428 36.9251 39.0303C39.8257 38.7702 42.566 38.3449 45.0511 37.7644C45.1708 38.2506 45.2791 38.7397 45.3759 39.2311ZM20.4553 50.8063C18.608 51.4655 17.1366 51.4844 16.2471 50.9662C14.3545 49.8632 13.5677 45.605 14.6409 39.8933C14.7685 39.2184 14.9146 38.5472 15.079 37.8804C17.5366 38.4299 20.257 38.825 23.1645 39.0632C24.8248 41.4238 26.5631 43.5935 28.3151 45.4935C27.9428 45.8575 27.5616 46.2123 27.172 46.5574C24.844 48.6136 22.5112 50.0726 20.4553 50.8063ZM11.8008 34.2823C8.87508 33.2717 6.45891 31.9584 4.80281 30.5253C3.31453 29.2376 2.56336 27.9589 2.56336 26.9215C2.56336 24.7137 5.82047 21.8976 11.253 19.9837C11.9123 19.7516 12.6023 19.5325 13.3184 19.3269C14.0693 21.7948 15.0541 24.3752 16.2427 26.9845C15.0387 29.6324 14.0398 32.254 13.2816 34.751C12.7842 34.6071 12.2905 34.4508 11.8008 34.2823ZM14.7019 14.326C13.5743 8.50276 14.3231 4.11005 16.2077 3.00756C18.2149 1.83329 22.6535 3.50753 27.3319 7.70532C27.6369 7.97967 27.9371 8.25959 28.2321 8.54492C26.4888 10.4366 24.7664 12.5902 23.1209 14.9368C20.299 15.2011 17.5978 15.6256 15.1144 16.1942C14.9614 15.5752 14.8238 14.9523 14.7019 14.3262V14.326ZM40.5832 20.7842C39.9966 19.7603 39.3883 18.7493 38.7586 17.7519C40.673 17.9966 42.5072 18.3213 44.2296 18.7182C43.7126 20.3932 43.068 22.1442 42.3094 23.9394C41.7548 22.8762 41.1793 21.8242 40.5832 20.7842ZM30.0288 10.3961C31.211 11.6904 32.3951 13.1354 33.5597 14.7033C31.1972 14.5905 28.8307 14.5901 26.4682 14.7019C27.634 13.1484 28.8281 11.7053 30.0288 10.3961ZM19.4067 20.802C18.8181 21.8336 18.2533 22.879 17.7129 23.9373C16.9666 22.1484 16.328 20.3894 15.8065 18.6908C17.5184 18.3038 19.3439 17.9873 21.2461 17.7472C20.6094 18.7507 19.9961 19.7691 19.4067 20.8017V20.802ZM21.3007 36.2801C19.3355 36.0584 17.4825 35.7583 15.7711 35.3817C16.3008 33.6528 16.9535 31.8563 17.7159 30.0291C18.2585 31.0882 18.8256 32.1342 19.4168 33.1663C20.0248 34.2274 20.6543 35.2666 21.3007 36.2801ZM30.0996 43.6293C28.8846 42.3049 27.6729 40.8395 26.4895 39.2636C27.6384 39.3091 28.8096 39.3323 30 39.3323C31.223 39.3323 32.4319 39.3046 33.6218 39.251C32.4534 40.8554 31.2738 42.3229 30.0996 43.6293ZM42.3335 29.9358C43.1355 31.7832 43.8115 33.5701 44.3482 35.2695C42.6087 35.6707 40.7304 35.9937 38.7513 36.2337C39.3855 35.2177 39.9996 34.1892 40.5933 33.1486C41.1969 32.0908 41.7771 31.0196 42.3335 29.9358ZM38.373 31.8545C37.4642 33.4499 36.5042 35.0151 35.4947 36.5475C33.666 36.6784 31.8333 36.7434 30 36.7424C28.1327 36.7424 26.3166 36.6837 24.5677 36.569C23.5318 35.0402 22.5535 33.4723 21.6349 31.8687H21.6352C20.7209 30.2736 19.8669 28.6439 19.0751 26.9833C19.8649 25.3223 20.7163 23.6919 21.6274 22.0956L21.6272 22.0958C22.538 20.4991 23.5084 18.9379 24.5365 17.4156C26.3208 17.2792 28.1505 17.2081 29.9998 17.2081H30C31.8577 17.2081 33.6898 17.2799 35.4736 17.4173C36.4913 18.9373 37.4555 20.4931 38.3646 22.0819C39.2788 23.6747 40.1414 25.2971 40.9512 26.9466C40.1497 28.613 39.2898 30.25 38.373 31.8545ZM43.6605 2.93034C45.6696 4.10129 46.451 8.82321 45.1887 15.0154C45.108 15.4105 45.0176 15.8129 44.9191 16.221C42.4296 15.6402 39.7266 15.2085 36.8965 14.9401C35.2479 12.5677 33.5395 10.4108 31.8246 8.5435C32.2741 8.1057 32.7342 7.67926 33.2046 7.26456C37.6343 3.36921 41.7743 1.83116 43.6605 2.93034ZM30 21.5073C32.959 21.5073 35.3578 23.9314 35.3578 26.9215C35.3578 29.9116 32.959 32.3357 30 32.3357C27.041 32.3357 24.6422 29.9116 24.6422 26.9215C24.6422 23.9314 27.041 21.5073 30 21.5073Z" fill="#00D8FF"/>
</svg>
