<svg width="65" height="65" viewBox="0 0 65 65" fill="none" xmlns="http://www.w3.org/2000/svg">
<path fill-rule="evenodd" clip-rule="evenodd" d="M32.5 4.0625C38.1244 4.0625 43.6225 5.73033 48.299 8.85508C52.9756 11.9798 56.6205 16.4212 58.7728 21.6174C60.9252 26.8137 61.4883 32.5315 60.3911 38.0479C59.2938 43.5642 56.5854 48.6313 52.6083 52.6083C48.6313 56.5854 43.5642 59.2938 38.0479 60.3911C32.5315 61.4883 26.8137 60.9252 21.6174 58.7728C16.4212 56.6205 11.9798 52.9756 8.85508 48.299C5.73033 43.6225 4.0625 38.1244 4.0625 32.5C4.0625 24.9579 7.05858 17.7247 12.3917 12.3917C17.7247 7.05858 24.9579 4.0625 32.5 4.0625Z" fill="#CC6699"/>
<path d="M50.3384 16.2338C49.0506 11.1841 40.6758 9.53063 32.7498 12.3378C27.7861 14.0058 23.2 16.6363 19.2542 20.0789C14.8891 24.1617 14.1923 27.7164 14.4787 29.2013C15.4944 34.4419 22.6708 37.8666 25.6222 40.4077V40.4219C24.7528 40.8505 18.3828 44.0781 16.8878 47.3688C15.3156 50.8463 17.1376 53.3406 18.3462 53.6758C20.1608 54.1126 22.0666 53.9705 23.7962 53.2692C25.5259 52.5679 26.9926 51.3428 27.9906 49.7656C28.8154 48.4878 29.3314 47.0355 29.4979 45.5238C29.6643 44.012 29.4765 42.4823 28.9494 41.0556C30.371 40.6944 31.8487 40.6096 33.3023 40.8058C38.2911 41.3888 39.2701 44.5027 39.0833 45.8067C38.9954 46.2709 38.8086 46.7107 38.5355 47.0963C38.2625 47.4818 37.9096 47.8041 37.5009 48.0411C37.1516 48.2584 37.0439 48.3316 37.0744 48.4941C37.117 48.7277 37.2775 48.7195 37.5761 48.6688C38.3258 48.4326 38.9863 47.975 39.4708 47.356C39.9552 46.737 40.2408 45.9859 40.2898 45.2014C40.4097 42.1545 37.4826 38.7298 32.2989 38.8172C30.7933 38.7742 29.291 38.9801 27.8525 39.4266C27.7805 39.3443 27.7074 39.2631 27.6331 39.1828C24.4278 35.7642 18.5047 33.345 18.7545 28.7483C18.8459 27.0766 19.4269 22.6769 30.1295 17.3388C38.9045 12.9655 45.9286 14.17 47.1433 16.837C48.878 20.6477 43.3895 27.7266 34.2773 28.7483C33.2702 28.9527 32.2299 28.9278 31.2337 28.6753C30.2376 28.4229 29.311 27.9493 28.5228 27.2898C28.0434 26.7617 27.9723 26.7394 27.7936 26.8369C27.5031 26.9973 27.688 27.4645 27.7936 27.7408C28.1425 28.3696 28.6135 28.9224 29.1789 29.3668C29.7443 29.8112 30.3928 30.1382 31.0862 30.3286C34.6689 31.1071 38.4058 30.7375 41.7666 29.2723C47.2936 27.1416 51.6039 21.2002 50.3384 16.2338ZM26.8491 41.9717C27.2525 43.3625 27.232 44.842 26.7901 46.2211C26.7428 46.3646 26.6906 46.5068 26.6337 46.6477C26.5769 46.7885 26.5153 46.9239 26.4489 47.0539C26.107 47.7533 25.6642 48.3987 25.1347 48.9694C23.4833 50.7711 21.1737 51.4536 20.1845 50.8788C19.1161 50.2592 19.6503 47.7181 21.5658 45.693C23.0376 44.2376 24.7345 43.029 26.5911 42.1139L26.8491 41.9717Z" fill="white"/>
</svg>
