<svg width="59" height="58" viewBox="0 0 59 58" fill="none" xmlns="http://www.w3.org/2000/svg">
<path fill-rule="evenodd" clip-rule="evenodd" d="M29.5 0C13.2012 0 0 13.2013 0 29.5C0 42.5538 8.44438 53.5794 20.1706 57.4881C21.6456 57.7463 22.1987 56.8613 22.1987 56.0869C22.1987 55.3863 22.1619 53.0631 22.1619 50.5925C14.75 51.9569 12.8325 48.7856 12.2425 47.1263C11.9106 46.2781 10.4725 43.66 9.21875 42.9594C8.18625 42.4063 6.71125 41.0419 9.18187 41.005C11.505 40.9681 13.1644 43.1438 13.7175 44.0288C16.3725 48.4906 20.6131 47.2369 22.3094 46.4625C22.5675 44.545 23.3419 43.2544 24.19 42.5169C17.6262 41.7794 10.7675 39.235 10.7675 27.9513C10.7675 24.7431 11.9106 22.0881 13.7913 20.0231C13.4963 19.2856 12.4637 16.2619 14.0862 12.2056C14.0862 12.2056 16.5569 11.4313 22.1987 15.2294C24.5587 14.5656 27.0662 14.2338 29.5737 14.2338C32.0812 14.2338 34.5887 14.5656 36.9487 15.2294C42.5906 11.3944 45.0612 12.2056 45.0612 12.2056C46.6838 16.2619 45.6512 19.2856 45.3563 20.0231C47.2369 22.0881 48.38 24.7063 48.38 27.9513C48.38 39.2719 41.4844 41.7794 34.9206 42.5169C35.99 43.4388 36.9119 45.2088 36.9119 47.9744C36.9119 51.92 36.875 55.0913 36.875 56.0869C36.875 56.8613 37.4281 57.7831 38.9031 57.4881C44.7593 55.5109 49.8481 51.7471 53.4532 46.7264C57.0583 41.7057 58.9982 35.681 59 29.5C59 13.2013 45.7987 0 29.5 0Z" fill="#6440ff"/>
</svg>
