<svg width="62" height="62" viewBox="0 0 62 62" fill="none" xmlns="http://www.w3.org/2000/svg">
<path d="M7.75 0C3.4565 0 0 3.4565 0 7.75V54.25C0 58.5435 3.4565 62 7.75 62H54.25C58.5435 62 62 58.5435 62 54.25V7.75C62 3.4565 58.5435 0 54.25 0H7.75ZM25.5311 16.1458C27.1586 16.1458 28.1273 16.9208 28.4373 18.4708L32.2167 39.9202C33.418 38.3315 34.4022 36.9933 35.1772 35.9083C36.4612 34.0577 37.5708 32.092 38.4917 30.0364C39.5379 27.8277 40.0623 25.8514 40.0623 24.1077C40.0623 23.0614 39.7704 22.2296 39.1892 21.6096C38.6467 20.9508 37.6185 20.119 36.1073 19.1115C37.6572 17.1352 39.5947 16.1458 41.9197 16.1458C43.1597 16.1458 44.1879 16.5152 45.0017 17.2515C45.8542 17.9877 46.2778 19.0702 46.2778 20.5065C46.2778 22.909 45.2703 25.9134 43.2553 29.5172C41.2791 33.0822 37.4661 38.4478 31.8086 45.6165L26.0555 46.0195L21.6354 21.1472H15.8229V18.7033C17.3729 18.1996 19.1942 17.6545 21.2867 17.0758C23.3792 16.4558 24.7948 16.1458 25.5311 16.1458Z" fill="#6440ff"/>
</svg>
